Coordinates
version=1
nRows=10
nColumns=22
inDegrees=yes

Units are S.I. units (second, meters, Newtons, ...)
If the header above contains a line with 'inDegrees', this indicates whether rotational values are in degrees (yes) or radians (no).

endheader
time	pelvis_tilt	pelvis_list	pelvis_rotation	pelvis_tx	pelvis_ty	pelvis_tz	hip_flexion_r	hip_adduction_r	hip_rotation_r	knee_angle_r	ankle_angle_r	subtalar_angle_r	hip_flexion_l	hip_adduction_l	hip_rotation_l	knee_angle_l	ankle_angle_l	subtalar_angle_l	lumbar_extension	lumbar_bending	lumbar_rotation
      5.42000000	      0.96180250	     -1.75768740	    293.94519110	     -0.54623628	      1.05571001	      0.34349627	     22.98859958	     -5.24321354	     -1.95479734	    -13.29676678	      9.32443312	      9.84700525	     -8.11167038	      9.00306611	     22.68815051	    -17.63320263	     16.70167300	    -16.40544281	     -3.79165013	     -2.18945452	     -7.62243078
      5.43000000	      0.78248127	     -1.67017934	    294.53066433	     -0.54448207	      1.05413563	      0.35254203	     22.71346951	     -4.91833816	     -1.61499215	    -11.00305015	      9.45490115	     10.67297233	     -8.36552376	      8.64948498	     22.89146134	    -17.92292992	     17.06782072	    -16.30119331	     -3.56361906	     -2.06646508	     -7.47485454
      5.44000000	      0.63173384	     -1.58000738	    295.08729679	     -0.54266846	      1.05257400	      0.36172723	     22.43689870	     -4.63959172	     -1.17454254	     -8.90924473	      9.59186515	     11.42919063	     -8.64554016	      8.31660874	     23.10343911	    -18.18224668	     17.38589754	    -16.16595677	     -3.33684233	     -1.97395783	     -7.31825252
      5.45000000	      0.51088400	     -1.48779042	    295.61703367	     -0.54079311	      1.05103754	      0.37105258	     22.18347892	     -4.40996087	     -0.66073307	     -7.09792197	      9.72934766	     12.08447689	     -8.94964484	      8.00655986	     23.32702915	    -18.41932014	     17.64987040	    -15.99478812	     -3.11533352	     -1.91284713	     -7.15607806
      5.46000000	      0.40967047	     -1.39054926	    296.11722871	     -0.53886233	      1.04953346	      0.38052603	     21.98262722	     -4.21719794	     -0.09712806	     -5.64184608	      9.84553265	     12.58044152	     -9.26525563	      7.71087121	     23.54048697	    -18.64197117	     17.83835186	    -15.79378853	     -2.89145333	     -1.87334028	     -6.99095714
      5.47000000	      0.36317482	     -1.30125289	    296.59600795	     -0.53687756	      1.04810536	      0.39009887	     21.84031050	     -4.08635365	      0.50154592	     -4.62947351	      9.98703397	     12.94773509	     -9.62693148	      7.46113189	     23.81444699	    -18.84600565	     17.98353482	    -15.52471045	     -2.70787998	     -1.88635769	     -6.81853032
      5.48000000	      0.33663406	     -1.21212816	    297.04758539	     -0.53485590	      1.04674442	      0.39980305	     21.78397465	     -3.97632366	      1.11289783	     -4.08413773	     10.11219477	     13.08421936	     -9.99827313	      7.22583350	     24.07962862	    -19.04992975	     18.06111840	    -15.22067024	     -2.53441158	     -1.92023686	     -6.64212765
      5.49000000	      0.33032249	     -1.13758105	    297.48051865	     -0.53278592	      1.04548638	      0.40962109	     21.80194423	     -3.87528951	      1.73076302	     -4.01536841	     10.21600812	     12.99646428	    -10.39089485	      6.99981039	     24.35130815	    -19.25897466	     18.07797149	    -14.86370216	     -2.39025417	     -1.96482841	     -6.46602616
      5.50000000	      0.34342142	     -1.07833993	    297.89543420	     -0.53067737	      1.04435365	      0.41957461	     21.88109833	     -3.77274627	      2.35194212	     -4.38332704	     10.25828009	     12.73120883	    -10.80803284	      6.77965028	     24.62333263	    -19.46781425	     18.02675487	    -14.49793997	     -2.27331322	     -2.02498486	     -6.29350536
      5.51000000	      0.32427895	     -1.05533657	    298.32542107	     -0.52844753	      1.04336882	      0.42967923	     21.98169289	     -3.61867157	      2.93208362	     -5.09083279	     10.20846975	     12.21116302	    -11.22452086	      6.50509338	     24.87165176	    -19.71681360	     17.92556153	    -13.97401473	     -2.16762579	     -2.02624164	     -6.15224367
